<svg width="55" height="48" viewBox="0 0 55 48" fill="none" xmlns="http://www.w3.org/2000/svg">
<path d="M23.9769 40.2975C23.9996 41.1032 23.8538 41.9051 23.5481 42.6563C23.2424 43.4076 22.7829 44.0932 22.1964 44.673C21.6104 45.2502 20.909 45.7093 20.1338 46.0231C19.3586 46.3369 18.5253 46.4991 17.6833 46.5C16.8411 46.5003 16.0074 46.3386 15.232 46.0247C14.4566 45.7108 13.7554 45.2511 13.1701 44.673C12.5826 44.0939 12.1224 43.4085 11.8166 42.657C11.5108 41.9056 11.3657 41.1033 11.3897 40.2975C11.4039 39.2505 11.704 38.2245 12.265 37.326C12.8244 36.426 13.6211 35.685 14.575 35.1765C14.5373 35.34 14.7164 35.094 14.575 35.1765L17.4979 32.6985C19.8148 30.3447 21.1089 27.2388 21.1184 24.009C21.1184 19.62 18.4297 15.1575 14.5656 12.8235C14.7133 12.906 14.509 12.6825 14.5656 12.8235C13.6112 12.3135 12.8149 11.572 12.2571 10.674C11.6975 9.77445 11.3956 8.75016 11.3819 7.704C11.3588 6.89808 11.5045 6.09586 11.8102 5.34431C12.1159 4.59275 12.5756 3.90694 13.1623 3.327C13.7481 2.75001 14.4492 2.29103 15.2242 1.97722C15.9991 1.66341 16.8321 1.50113 17.6739 1.5C18.5161 1.49957 19.3498 1.66113 20.1252 1.97503C20.9006 2.28892 21.6019 2.74873 22.187 3.327C22.7748 3.90592 23.2351 4.59134 23.5409 5.34283C23.8467 6.09431 23.9917 6.89665 23.9674 7.7025C23.9838 10.9606 25.303 14.0898 27.6556 16.4505L28.9394 17.6505C29.4517 18.078 29.9891 18.477 30.5486 18.8475C31.5244 19.3425 32.3431 20.0865 32.912 20.994C33.3378 21.6734 33.6149 22.4282 33.7263 23.2127C33.8378 23.9972 33.7813 24.7952 33.5604 25.5583C33.3394 26.3214 32.9586 27.0338 32.4409 27.6523C31.9232 28.2709 31.2795 28.7828 30.5486 29.157C30.6004 29.0565 30.4496 29.211 30.5486 29.157C28.5746 30.3481 26.9417 31.9888 25.7966 33.9315C24.6486 35.8775 24.0235 38.0646 23.9769 40.2975ZM31.0216 7.6845C31.0216 8.8785 31.3909 10.047 32.0839 11.04C32.7744 12.0316 33.7577 12.8053 34.9093 13.263C36.0597 13.7203 37.3268 13.8399 38.5489 13.6067C39.7709 13.3734 40.8924 12.7979 41.7701 11.9535C42.6506 11.1068 43.2498 10.0309 43.4927 8.86065C43.7356 7.69038 43.6114 6.47771 43.1357 5.3745C42.66 4.27254 41.8529 3.32986 40.8163 2.6655C39.6061 1.89042 38.151 1.54151 36.7007 1.67863C35.2505 1.81576 33.8954 2.43036 32.868 3.417C31.6864 4.55101 31.0226 6.08509 31.0216 7.6845ZM37.3183 34.26C36.0737 34.26 34.8559 34.614 33.8203 35.277C32.7837 35.9414 31.9766 36.8841 31.5009 37.986C31.0248 39.0894 30.9004 40.3024 31.1433 41.4729C31.3863 42.6435 31.9856 43.7197 32.8664 44.5665C33.7442 45.4109 34.8657 45.9864 36.0877 46.2197C37.3097 46.4529 38.5768 46.3333 39.7273 45.876C40.8798 45.4177 41.8638 44.643 42.5543 43.65C43.3632 42.4874 43.7268 41.0939 43.5836 39.7049C43.4405 38.316 42.7993 37.0168 41.7686 36.027C41.1853 35.4669 40.492 35.0223 39.7283 34.7185C38.9646 34.4148 38.1456 34.258 37.3183 34.257V34.26ZM53.4286 23.991C53.4286 22.797 53.0593 21.63 52.3679 20.637C51.6775 19.6448 50.6942 18.8706 49.5424 18.4125C48.3918 17.9549 47.1243 17.8351 45.902 18.0683C44.6797 18.3016 43.5579 18.8773 42.68 19.722C41.7992 20.5689 41.1998 21.645 40.9569 22.8155C40.714 23.9861 40.8384 25.1991 41.3144 26.3025C41.7901 27.4045 42.5972 28.3471 43.6339 29.0115C44.6682 29.6745 45.8859 30.0285 47.1319 30.0285C47.9591 30.0273 48.778 29.8703 49.5417 29.5666C50.3053 29.2629 50.9987 28.8184 51.5821 28.2585C52.7638 27.1239 53.4276 25.5894 53.4286 23.9895V23.991Z" fill="#0085FF"/>
<path d="M7.86816 17.9535C6.62201 17.9535 5.40573 18.3075 4.37016 18.9705C3.33336 19.6353 2.52623 20.5785 2.05073 21.681C1.575 22.7842 1.45081 23.9969 1.69372 25.1671C1.93663 26.3374 2.53583 27.4133 3.4163 28.26C4.29535 29.1025 5.41677 29.6767 6.63827 29.9099C7.85978 30.143 9.1263 30.0245 10.2772 29.5695C11.4289 29.1113 12.4122 28.3371 13.1026 27.345C13.911 26.1828 14.2743 24.7898 14.1311 23.4015C13.988 22.0131 13.3471 20.7145 12.3169 19.725C11.7337 19.1651 11.0406 18.7204 10.2773 18.4165C9.51392 18.1125 8.69527 17.9552 7.86816 17.9535Z" fill="#0085FF"/>
</svg>
