<?xml version="1.0" encoding="UTF-8"?>
<svg preserveAspectRatio="xMidYMid slice" xmlns="http://www.w3.org/2000/svg" version="1.1" id="svg2" width="1700px" height="377px" viewBox="0 0 1700.7867 377.95334">
  <defs id="defs6">
    <clipPath id="clipPath18">
      <path d="M 0,283.465 H 1275.591 V 0 H 0 Z" id="path16"></path>
    </clipPath>
  </defs>
  <g id="g10" transform="matrix(1.3333333,0,0,-1.3333333,0,377.95333)">
    <g id="g12">
      <g id="g14" clip-path="url(#clipPath18)">
        <g id="g20" transform="translate(126.0686,129.3119)">
          <path d="m 0,0 c 0,17.53 14.211,31.742 31.741,31.742 9.295,0 17.656,-3.996 23.461,-10.362 5.805,6.366 14.167,10.362 23.461,10.362 17.53,0 31.742,-14.212 31.742,-31.742 v -26.221 c 0,-4.573 -3.708,-8.28 -8.28,-8.28 -4.574,0 -8.281,3.707 -8.281,8.28 V 0 c 0,8.384 -6.797,15.181 -15.181,15.181 C 70.279,15.181 63.482,8.384 63.482,0 v -26.221 c 0,-4.573 -3.707,-8.28 -8.28,-8.28 -4.573,0 -8.28,3.707 -8.28,8.28 V 0 c 0,8.384 -6.797,15.181 -15.181,15.181 -8.384,0 -15.18,-6.797 -15.18,-15.181 v -26.221 c 0,-4.573 -3.708,-8.28 -8.281,-8.28 -4.573,0 -8.28,3.707 -8.28,8.28 z" style="fill:#00afb9;fill-opacity:1;fill-rule:nonzero;stroke:none" id="path22"></path>
        </g>
        <g id="g24" transform="translate(196.4499,142.0345)">
          <path d="m 0,0 c -4.155,-2.708 -6.899,-7.39 -6.899,-12.725 0,8.239 -3.137,15.737 -8.284,21.384 2.011,2.198 4.316,4.12 6.872,5.684 C -4.62,10.232 -1.77,5.362 0,0" style="fill:#00a1ab;fill-opacity:1;fill-rule:nonzero;stroke:none" id="path26"></path>
        </g>
        <g id="g28" transform="translate(167.47,177.6141)">
          <path d="m 0,0 c 0,-6.098 -4.943,-11.041 -11.04,-11.041 -6.098,0 -11.041,4.943 -11.041,11.041 0,6.097 4.943,11.04 11.041,11.04 C -4.943,11.04 0,6.097 0,0" style="fill:#00aebd;fill-opacity:1;fill-rule:nonzero;stroke:none" id="path30"></path>
        </g>
        <g id="g32" transform="translate(203.3513,166.5731)">
          <path d="m 0,0 c 6.098,0 11.041,4.943 11.041,11.041 0,6.097 -4.943,11.04 -11.041,11.04 -6.097,0 -11.04,-4.943 -11.04,-11.04 C -11.04,4.943 -6.097,0 0,0" style="fill:#00aebd;fill-opacity:1;fill-rule:nonzero;stroke:none" id="path34"></path>
        </g>
        <g id="g36" transform="translate(87.427,141.7323)">
          <path d="m 0,0 c 0,-51.829 42.015,-93.844 93.844,-93.844 51.828,0 93.843,42.015 93.843,93.844 0,51.829 -42.015,93.844 -93.843,93.844 C 42.015,93.844 0,51.829 0,0 M 93.844,110.405 C 32.869,110.405 -16.561,60.975 -16.561,0 c 0,-60.975 49.43,-110.405 110.405,-110.405 60.974,0 110.405,49.43 110.405,110.405 0,60.975 -49.431,110.405 -110.405,110.405" style="fill:#00aebd;fill-opacity:1;fill-rule:evenodd;stroke:none" id="path38"></path>
        </g>
        <g id="g40" transform="translate(851.2942,131.5511)">
          <path d="M 0,0 40.661,5.587 C 39.265,11.343 36.394,15.737 32.046,18.768 27.783,21.912 22.932,23.11 17.49,22.362 12.148,21.628 7.799,19.166 4.443,14.975 1.173,10.897 -0.308,5.905 0,0 m 26.733,-43.803 c -8.409,-1.155 -15.932,-0.324 -22.569,2.493 -6.538,2.831 -11.904,7.033 -16.096,12.606 -4.207,5.671 -6.799,12.069 -7.778,19.192 -1.006,7.321 -0.298,14.273 2.124,20.855 2.507,6.696 6.576,12.294 12.207,16.797 5.617,4.603 12.68,7.489 21.188,8.657 8.508,1.169 16.038,0.289 22.59,-2.641 6.538,-2.832 11.811,-7.096 15.82,-12.795 4.094,-5.586 6.623,-11.891 7.589,-18.916 0.353,-2.572 0.51,-4.819 0.472,-6.739 L 2.178,-12.552 c 1.324,-5.968 4.202,-10.41 8.635,-13.329 4.533,-2.906 9.42,-3.998 14.664,-3.277 3.958,0.544 7.538,1.993 10.742,4.348 3.29,2.469 5.361,5.374 6.212,8.717 l 17.718,-2.404 c -2.053,-6.331 -5.981,-11.859 -11.783,-16.588 -5.814,-4.629 -13.026,-7.536 -21.633,-8.718" style="fill-opacity: 1; fill-rule: nonzero; stroke: none; fill: rgb(233, 234, 247);" id="path42"></path>
        </g>
        <g id="g44" transform="translate(460.1135,88.7469)">
          <path d="m 0,0 v 70.634 l -27.502,-52.6 h -11.271 l -27.502,52.6 V 0 h -20.74 v 106.703 h 22.243 l 31.559,-60.716 31.86,60.716 H 20.739 L 20.739,0 Z" style="fill-opacity: 1; fill-rule: nonzero; stroke: none; fill: rgb(233, 234, 247);" id="path46"></path>
        </g>
        <g id="g48" transform="translate(560.8176,134.7337)">
          <path d="m 0,0 c -0.502,5.911 -2.682,10.644 -6.537,14.202 -3.859,3.556 -8.543,5.336 -14.051,5.336 -2.706,0 -5.237,-0.478 -7.59,-1.429 -2.356,-0.953 -4.433,-2.28 -6.237,-3.983 -1.804,-1.704 -3.283,-3.756 -4.434,-6.161 C -40.001,5.561 -40.678,2.905 -40.877,0 Z m -20.439,-47.49 c -6.311,0 -12.022,1.077 -17.132,3.231 -5.11,2.154 -9.468,5.084 -13.075,8.792 -3.606,3.705 -6.387,8.014 -8.341,12.925 -1.953,4.908 -2.93,10.069 -2.93,15.479 0,5.61 0.951,10.895 2.855,15.855 1.902,4.959 4.659,9.317 8.266,13.075 3.607,3.757 7.989,6.737 13.15,8.941 5.159,2.203 10.945,3.307 17.357,3.307 6.411,0 12.148,-1.104 17.208,-3.307 5.058,-2.204 9.367,-5.161 12.925,-8.867 3.555,-3.707 6.26,-8.016 8.115,-12.924 1.853,-4.91 2.78,-10.02 2.78,-15.329 0,-1.303 -0.026,-2.555 -0.074,-3.757 -0.052,-1.202 -0.177,-2.205 -0.376,-3.005 h -60.866 c 0.301,-3.108 1.052,-5.862 2.255,-8.266 1.202,-2.405 2.754,-4.459 4.658,-6.161 1.903,-1.706 4.058,-3.007 6.462,-3.909 2.406,-0.902 4.908,-1.352 7.515,-1.352 4.006,0 7.789,0.977 11.346,2.93 3.555,1.954 5.986,4.533 7.289,7.74 L 16.231,-26.9 C 13.324,-32.913 8.691,-37.848 2.33,-41.704 -4.034,-45.562 -11.623,-47.49 -20.439,-47.49" style="fill-opacity: 1; fill-rule: nonzero; stroke: none; fill: rgb(233, 234, 247);" id="path50"></path>
        </g>
        <g id="g52" transform="translate(718.7971,88.7469)">
          <path d="m 0,0 h -20.138 v 44.183 c 0,6.313 -1.077,10.92 -3.231,13.827 -2.156,2.904 -5.136,4.358 -8.942,4.358 -4.008,0 -7.765,-1.529 -11.272,-4.584 -3.507,-3.057 -6.011,-7.039 -7.514,-11.948 V 0 h -20.138 v 44.183 c 0,6.313 -1.078,10.92 -3.231,13.827 -2.156,2.904 -5.135,4.358 -8.942,4.358 -3.907,0 -7.641,-1.503 -11.196,-4.508 -3.558,-3.006 -6.087,-6.965 -7.589,-11.873 V 0 h -20.139 v 78.749 h 18.185 V 64.171 c 2.905,5.11 6.887,9.04 11.947,11.798 5.058,2.755 10.845,4.133 17.358,4.133 6.613,0 11.722,-1.604 15.329,-4.809 3.607,-3.208 5.91,-7.165 6.913,-11.873 3.206,5.41 7.263,9.543 12.174,12.399 4.907,2.855 10.519,4.283 16.831,4.283 4.81,0 8.766,-0.902 11.873,-2.706 3.104,-1.803 5.509,-4.158 7.214,-7.063 1.702,-2.907 2.878,-6.213 3.531,-9.919 C -0.326,56.707 0,52.949 0,49.143 Z" style="fill-opacity: 1; fill-rule: nonzero; stroke: none; fill: rgb(233, 234, 247);" id="path54"></path>
        </g>
        <g id="g56" transform="translate(777.9197,104.3763)">
          <path d="m 0,0 c 3.206,0 6.162,0.625 8.867,1.878 2.705,1.252 5.008,2.931 6.913,5.035 1.902,2.104 3.382,4.558 4.433,7.364 1.053,2.804 1.579,5.81 1.579,9.017 0,3.206 -0.503,6.261 -1.504,9.167 -1.002,2.906 -2.43,5.46 -4.283,7.665 -1.855,2.203 -4.033,3.957 -6.537,5.26 -2.506,1.301 -5.26,1.954 -8.265,1.954 -4.509,0 -8.543,-1.48 -12.099,-4.434 -3.557,-2.956 -6.288,-6.588 -8.19,-10.895 V 13.225 c 0.699,-2.005 1.729,-3.808 3.081,-5.41 1.352,-1.604 2.879,-2.982 4.583,-4.133 C -9.719,2.529 -7.866,1.627 -5.861,0.977 -3.857,0.324 -1.904,0 0,0 m 5.561,-17.132 c -6.012,0 -11.373,1.352 -16.081,4.058 -4.71,2.704 -8.416,6.41 -11.121,11.12 V -15.629 H -39.224 V 94.078 h 20.138 V 49.293 c 2.804,4.81 6.485,8.54 11.045,11.197 4.559,2.654 9.894,3.982 16.006,3.982 5.11,0 9.769,-1.103 13.976,-3.306 4.209,-2.205 7.839,-5.162 10.896,-8.867 3.056,-3.708 5.411,-8.066 7.063,-13.075 1.654,-5.011 2.481,-10.27 2.481,-15.78 0,-5.71 -0.928,-11.022 -2.781,-15.93 -1.855,-4.91 -4.433,-9.193 -7.739,-12.849 -3.307,-3.659 -7.214,-6.537 -11.723,-8.641 -4.508,-2.105 -9.369,-3.156 -14.577,-3.156" style="fill-opacity: 1; fill-rule: nonzero; stroke: none; fill: rgb(233, 234, 247);" id="path58"></path>
        </g>
        <g id="g60" transform="translate(976.0383,150.0629)">
          <path d="m 0,0 c -6.112,-0.101 -11.572,-1.277 -16.381,-3.532 -4.809,-2.253 -8.265,-5.635 -10.37,-10.144 v -47.64 h -20.138 v 78.749 h 18.486 V 0.601 c 1.401,2.706 3.054,5.133 4.959,7.289 1.902,2.154 3.957,4.032 6.161,5.636 2.203,1.601 4.434,2.829 6.688,3.682 2.254,0.85 4.434,1.277 6.537,1.277 h 2.48 c 0.55,0 1.076,-0.051 1.578,-0.15 z" style="fill-opacity: 1; fill-rule: nonzero; stroke: none; fill: rgb(233, 234, 247);" id="path62"></path>
        </g>
        <g id="g64" transform="translate(1019.8,87.244)">
          <path d="m 0,0 c -6.612,0 -13.075,1.052 -19.386,3.156 -6.313,2.104 -11.723,5.11 -16.231,9.017 l 7.514,12.624 c 4.809,-3.407 9.491,-5.987 14.051,-7.739 4.558,-1.755 9.093,-2.631 13.601,-2.631 4.006,0 7.162,0.751 9.468,2.255 2.304,1.503 3.457,3.656 3.457,6.462 0,2.803 -1.353,4.858 -4.058,6.162 -2.706,1.301 -7.115,2.803 -13.225,4.508 -5.11,1.402 -9.468,2.755 -13.075,4.058 -3.607,1.3 -6.514,2.78 -8.717,4.433 -2.204,1.653 -3.808,3.555 -4.809,5.711 -1.003,2.153 -1.503,4.734 -1.503,7.739 0,4.007 0.776,7.613 2.33,10.821 1.552,3.206 3.731,5.937 6.537,8.191 2.804,2.254 6.087,3.982 9.844,5.184 3.757,1.203 7.838,1.804 12.248,1.804 5.911,0 11.446,-0.853 16.607,-2.555 5.159,-1.704 9.892,-4.459 14.201,-8.266 L 20.739,58.762 c -4.008,3.005 -7.89,5.207 -11.647,6.612 -3.757,1.402 -7.49,2.104 -11.196,2.104 -3.407,0 -6.263,-0.702 -8.567,-2.104 -2.305,-1.405 -3.456,-3.658 -3.456,-6.763 0,-1.404 0.274,-2.555 0.827,-3.457 0.549,-0.902 1.428,-1.704 2.629,-2.404 1.203,-0.702 2.781,-1.379 4.734,-2.029 1.954,-0.652 4.383,-1.329 7.29,-2.029 5.41,-1.404 10.043,-2.805 13.901,-4.208 3.855,-1.404 7.012,-3.005 9.467,-4.809 2.454,-1.803 4.258,-3.884 5.411,-6.237 1.151,-2.355 1.728,-5.184 1.728,-8.491 0,-7.716 -2.856,-13.802 -8.566,-18.26 C 17.583,2.229 9.818,0 0,0" style="fill-opacity: 1; fill-rule: nonzero; stroke: none; fill: rgb(233, 234, 247);" id="path66"></path>
        </g>
        <g id="g68" transform="translate(1123.9314,134.7337)">
          <path d="m 0,0 c -0.502,5.911 -2.682,10.644 -6.538,14.202 -3.857,3.556 -8.542,5.336 -14.051,5.336 -2.705,0 -5.236,-0.478 -7.589,-1.429 -2.356,-0.953 -4.434,-2.28 -6.238,-3.983 -1.803,-1.704 -3.282,-3.756 -4.433,-6.161 C -40.002,5.561 -40.678,2.905 -40.877,0 Z m -20.439,-47.49 c -6.312,0 -12.022,1.077 -17.133,3.231 -5.109,2.154 -9.467,5.084 -13.074,8.792 -3.606,3.705 -6.388,8.014 -8.34,12.925 -1.954,4.908 -2.932,10.069 -2.932,15.479 0,5.61 0.951,10.895 2.856,15.855 1.902,4.959 4.659,9.317 8.266,13.075 3.607,3.757 7.988,6.737 13.15,8.941 5.158,2.203 10.944,3.307 17.357,3.307 6.412,0 12.147,-1.104 17.208,-3.307 5.058,-2.204 9.367,-5.161 12.925,-8.867 3.555,-3.707 6.26,-8.016 8.115,-12.924 1.853,-4.91 2.78,-10.02 2.78,-15.329 0,-1.303 -0.025,-2.555 -0.074,-3.757 -0.052,-1.202 -0.177,-2.205 -0.377,-3.005 h -60.865 c 0.301,-3.108 1.052,-5.862 2.255,-8.266 1.201,-2.405 2.754,-4.459 4.658,-6.161 1.902,-1.706 4.058,-3.007 6.462,-3.909 2.405,-0.902 4.909,-1.352 7.515,-1.352 4.006,0 7.789,0.977 11.346,2.93 3.555,1.954 5.986,4.533 7.289,7.74 L 16.231,-26.9 C 13.323,-32.913 8.69,-37.848 2.33,-41.704 -4.034,-45.562 -11.624,-47.49 -20.439,-47.49" style="fill-opacity: 1; fill-rule: nonzero; stroke: none; fill: rgb(233, 234, 247);" id="path70"></path>
        </g>
        <g id="g72" transform="translate(1204.7244,92.8041)">
          <path d="m 0,0 c -2.706,-1.202 -6.011,-2.404 -9.919,-3.606 -3.907,-1.203 -8.017,-1.804 -12.323,-1.804 -2.806,0 -5.436,0.352 -7.89,1.052 -2.456,0.7 -4.61,1.827 -6.462,3.381 -1.856,1.553 -3.333,3.556 -4.434,6.012 -1.104,2.454 -1.653,5.433 -1.653,8.942 V 59.212 H -53.05 v 15.48 h 10.369 v 25.549 h 20.139 V 74.692 H -6.011 V 59.212 H -22.542 V 20.74 c 0,-2.807 0.725,-4.786 2.178,-5.937 1.451,-1.153 3.232,-1.728 5.336,-1.728 2.104,0 4.155,0.35 6.161,1.052 2.003,0.7 3.607,1.301 4.809,1.803 z" style="fill-opacity: 1; fill-rule: nonzero; stroke: none; fill: rgb(233, 234, 247);" id="path74"></path>
        </g>
      </g>
    </g>
  </g>
</svg>
